<?xml version="1.0" standalone="no"?>
<!DOCTYPE svg PUBLIC "-//W3C//DTD SVG 20010904//EN"
 "http://www.w3.org/TR/2001/REC-SVG-20010904/DTD/svg10.dtd">
<svg version="1.0" xmlns="http://www.w3.org/2000/svg"
 width="249.000000pt" height="177.000000pt" viewBox="0 0 249.000000 177.000000"
 preserveAspectRatio="xMidYMid meet">

<g transform="translate(0.000000,177.000000) scale(0.100000,-0.100000)"
fill="#000000" stroke="none">
<path d="M2125 1646 c-55 -25 -78 -60 -83 -125 -4 -54 -2 -60 28 -94 107 -122
297 -21 251 134 -22 75 -124 119 -196 85z m122 -58 c28 -26 38 -74 24 -111
-13 -33 -24 -34 -39 -3 -9 19 -8 27 4 36 18 15 18 54 1 68 -7 6 -33 14 -57 18
-35 6 -40 9 -25 15 28 11 66 1 92 -23z m-127 -75 c-1 -71 -2 -76 -15 -59 -18
24 -20 89 -3 116 7 11 14 20 15 20 2 0 3 -35 3 -77z m85 32 c0 -5 -10 -11 -22
-13 -16 -2 -23 2 -23 13 0 11 7 15 23 13 12 -2 22 -7 22 -13z m9 -107 c13 -15
12 -17 -13 -23 -15 -3 -38 -1 -52 4 -17 7 -19 10 -6 10 13 1 17 10 17 39 l1
37 19 -25 c10 -14 26 -33 34 -42z"/>
<path d="M560 1484 c0 -3 -37 -148 -81 -321 -62 -239 -79 -317 -69 -323 16
-10 100 -21 110 -15 4 2 15 43 25 90 10 47 21 85 25 85 4 0 15 -38 25 -85 23
-113 27 -117 101 -113 l61 3 -90 343 c-50 188 -94 342 -99 342 -4 0 -8 -3 -8
-6z"/>
<path d="M1177 1400 c-204 -35 -314 -220 -305 -512 l3 -93 65 -5 65 -5 0 130
c0 119 2 135 26 186 46 97 109 129 256 129 l94 0 -3 88 -3 87 -75 2 c-41 0
-97 -3 -123 -7z"/>
<path d="M1410 1089 c0 -289 2 -321 16 -315 9 3 38 6 65 6 l49 0 0 143 0 142
63 -135 64 -135 68 2 c37 2 70 5 73 8 3 2 -58 140 -134 305 l-139 300 -62 0
-63 0 0 -321z"/>
<path d="M1840 1106 l0 -303 53 4 c28 3 58 6 65 8 9 3 12 72 12 300 l0 295
-65 0 -65 0 0 -304z"/>
<path d="M1120 935 l0 -95 65 0 c65 0 65 0 65 -29 0 -33 17 -41 88 -41 l42 0
0 130 0 130 -130 0 -130 0 0 -95z"/>
<path d="M332 597 c-23 -91 -42 -170 -42 -176 0 -7 26 -11 70 -11 39 0 70 3
70 6 0 4 16 73 35 155 19 82 35 153 35 159 0 10 -20 17 -81 25 l-45 7 -42
-165z"/>
<path d="M1950 734 c-8 -2 -64 -8 -123 -13 -60 -5 -111 -12 -114 -14 -2 -3 26
-71 63 -151 l67 -146 63 0 64 0 0 165 c0 91 -1 164 -2 164 -2 -1 -10 -3 -18
-5z"/>
<path d="M643 708 c2 -7 19 -77 38 -155 l33 -143 66 0 c37 0 69 2 72 5 6 7
-62 273 -75 293 -5 7 -32 12 -74 12 -48 0 -64 -3 -60 -12z"/>
<path d="M896 684 c23 -99 100 -200 178 -234 57 -26 158 -42 236 -38 l65 3 3
138 3 137 -43 0 c-24 0 -53 3 -65 6 -22 6 -23 4 -23 -50 l0 -56 -32 0 c-48 1
-119 35 -154 76 -29 34 -35 37 -103 42 l-72 5 7 -29z"/>
<path d="M1423 693 c-7 -2 -13 -13 -13 -24 0 -17 8 -19 65 -19 63 0 65 1 65
25 0 24 -3 25 -52 24 -29 0 -59 -3 -65 -6z"/>
<path d="M304 266 c-3 -8 -4 -31 -2 -52 l3 -39 58 -3 c35 -2 57 1 57 8 0 5
-22 10 -50 10 -27 0 -50 5 -50 10 0 6 20 10 45 10 25 0 45 5 45 10 0 6 -20 10
-45 10 -33 0 -45 4 -45 15 0 11 12 15 50 15 28 0 50 5 50 10 0 16 -110 12
-116 -4z"/>
<path d="M470 225 c0 -67 18 -73 22 -7 l3 47 25 -45 c16 -29 33 -46 48 -48 20
-3 22 0 22 52 0 31 -4 56 -10 56 -5 0 -10 -20 -10 -45 0 -25 -4 -45 -8 -45 -4
0 -18 20 -30 45 -15 31 -28 45 -42 45 -18 0 -20 -7 -20 -55z"/>
<path d="M630 270 c0 -5 11 -10 25 -10 23 0 25 -4 25 -45 0 -25 5 -45 10 -45
6 0 10 20 10 45 0 41 2 45 25 45 14 0 25 5 25 10 0 6 -27 10 -60 10 -33 0 -60
-4 -60 -10z"/>
<path d="M804 266 c-3 -8 -4 -31 -2 -52 l3 -39 58 -3 c35 -2 57 1 57 8 0 5
-22 10 -50 10 -27 0 -50 5 -50 10 0 6 20 10 45 10 25 0 45 5 45 10 0 6 -20 10
-45 10 -33 0 -45 4 -45 15 0 11 12 15 50 15 28 0 50 5 50 10 0 16 -110 12
-116 -4z"/>
<path d="M970 225 c0 -30 5 -55 10 -55 6 0 10 9 10 20 0 16 7 20 34 20 26 0
36 -5 41 -20 11 -35 20 -21 20 33 l0 52 -57 3 -58 3 0 -56z m100 20 c0 -11
-11 -15 -40 -15 -29 0 -40 4 -40 15 0 11 11 15 40 15 29 0 40 -4 40 -15z"/>
<path d="M1140 225 c0 -30 5 -55 10 -55 6 0 10 9 10 19 0 17 8 20 48 23 45 3
47 4 47 33 0 30 -1 30 -57 33 l-58 3 0 -56z m100 20 c0 -11 -11 -15 -40 -15
-29 0 -40 4 -40 15 0 11 11 15 40 15 29 0 40 -4 40 -15z"/>
<path d="M1300 225 c0 -30 5 -55 10 -55 6 0 10 9 10 20 0 16 7 20 34 20 26 0
36 -5 41 -20 11 -35 20 -21 20 33 l0 52 -57 3 -58 3 0 -56z m100 20 c0 -11
-11 -15 -40 -15 -29 0 -40 4 -40 15 0 11 11 15 40 15 29 0 40 -4 40 -15z"/>
<path d="M1470 225 c0 -30 5 -55 10 -55 6 0 10 25 10 55 0 30 -4 55 -10 55 -5
0 -10 -25 -10 -55z"/>
<path d="M1534 266 c-14 -36 0 -51 49 -54 63 -4 61 -22 -3 -22 -28 0 -50 -5
-50 -10 0 -7 22 -10 58 -8 53 3 57 5 57 28 0 23 -4 25 -47 28 -34 2 -48 7 -48
18 0 10 12 14 45 14 25 0 45 5 45 10 0 16 -100 12 -106 -4z"/>
<path d="M1704 266 c-3 -8 -4 -31 -2 -52 l3 -39 58 -3 c35 -2 57 1 57 8 0 5
-22 10 -50 10 -27 0 -50 5 -50 10 0 6 20 10 45 10 25 0 45 5 45 10 0 6 -20 10
-45 10 -33 0 -45 4 -45 15 0 11 12 15 50 15 28 0 50 5 50 10 0 16 -110 12
-116 -4z"/>
<path d="M1874 266 c-14 -36 0 -51 49 -54 63 -4 61 -22 -3 -22 -28 0 -50 -5
-50 -10 0 -7 22 -10 58 -8 53 3 57 5 57 28 0 23 -4 25 -47 28 -34 2 -48 7 -48
18 0 10 12 14 45 14 25 0 45 5 45 10 0 16 -100 12 -106 -4z"/>
</g>
</svg>
